<?xml version="1.0" encoding="UTF-8" standalone="no"?>
<!-- Uploaded to: SVG Repo, www.svgrepo.com, Generator: SVG Repo Mixer Tools -->

<svg
   width="800px"
   height="800px"
   viewBox="0 0 1024 1024"
   class="icon"
   version="1.1"
   id="svg2"
   xmlns="http://www.w3.org/2000/svg"
   xmlns:svg="http://www.w3.org/2000/svg">
  <defs
     id="defs2" />
  <path
     style="stroke-width:0.991126"
     d="m 443.33099,337.19154 c 0,-1.5195 -0.77342,-1.5195 -0.77342,0 10e-6,1.5195 -0.77341,3.039 -0.77341,4.55849 v -1.51949 c 0.77341,-4.5585 -27.06949,17.47422 -36.35045,27.35096 -6.18731,6.83773 -9.28097,15.95472 -8.50756,25.07171 -3.09365,-2.27925 -0.77341,-15.19498 0,-18.23398 2.32025,-8.35723 10.05439,-12.91572 16.2417,-18.23397 1.54682,-1.5195 27.8429,-17.47422 27.8429,-18.99372 0,1.5195 0,1.5195 0,0 -0.77342,-6.83773 -20.10876,9.87673 -21.65559,10.63649 -15.46828,11.39622 -30.16314,25.0717 -24.74925,47.10443 0,0.75974 0.77342,1.5195 1.54683,2.27924 h 2.32024 c 0,0.75975 0.77342,2.27924 0.77342,3.03899 0,0 23.20241,3.039 35.57704,-26.5912 1.54682,-3.039 3.09365,-9.87674 4.64048,-16.71448 1.54683,-6.83774 3.09366,-13.67548 3.86707,-19.75347 z"
     id="path97" />
  <path
     style="stroke-width:0.991126"
     d="m 604.97449,533.20674 c 0,0 0,-0.75975 0,0 z"
     id="path96" />
  <path
     style="stroke-width:0.991126"
     d="m 447.97147,385.81547 c 0.77342,-5.31825 4.64048,-10.63648 7.73414,-15.19498 1.54683,-1.51949 6.96073,-7.59749 11.60121,-12.91573 -5.4139,6.83774 -11.60121,15.95473 -14.69487,21.27297 -3.86706,6.83774 -4.64048,15.95473 -3.09365,23.55221 -3.09366,0.75975 -2.32024,-15.19497 -1.54683,-16.71447 z"
     id="path95" />
  <path
     style="stroke-width:0.991126"
     d="m 471.9473,350.10727 c 0,0.75975 0.77342,0.75975 1.54683,0.75975 v 0.75975 c -0.77341,0 -2.32024,1.51949 -3.86707,3.79875 1.54683,-2.27926 2.32024,-4.5585 2.32024,-5.31825 z"
     id="path94" />
  <path
     style="stroke-width:0.991126"
     d="m 447.19806,406.32869 c 0.77341,0 1.54683,0 2.32024,-0.75976 v 0.75976 c 0,0 13.14804,-1.5195 20.10876,-22.03272 3.86707,-11.39623 5.4139,-25.07172 6.18731,-34.1887 0,-0.75975 -0.77341,-0.75975 -0.77341,-1.5195 0,-0.75974 -2.32024,-3.03899 -2.32024,-3.03899 -5.4139,0 -12.37463,16.71447 -15.46828,21.27296 -8.50755,11.39624 -14.69486,22.03273 -10.05438,37.2277 0,-0.75975 -0.77342,2.27925 0,2.27925 z"
     id="path93" />
  <path
     style="stroke-width:0.991126"
     d="m 318.81135,204.99524 c -1.54683,-3.79873 -3.86707,-8.35723 -5.4139,-11.39622 0,0 -0.77341,-0.75975 -1.54682,-2.27925 3.09365,5.31824 5.41389,10.63648 6.18731,11.39623 0,0.75975 0,1.5195 0.77341,2.27924 z"
     id="path92" />
  <path
     style="stroke-width:0.991126"
     d="m 265.44579,242.98269 c 1.54683,-3.039 2.32024,-6.83774 3.86707,-9.87673 0,0 0.77342,0 0.77341,-0.75976 -0.77341,1.5195 4.64049,18.99372 5.4139,23.55222 3.09366,12.15598 4.64049,24.31196 6.18731,36.46794 0.77342,4.5585 0.77342,9.11699 0.77342,13.67548 -3.09366,-22.03271 -12.37462,-55.46166 -17.01511,-63.05915 z"
     id="path91" />
  <path
     style="stroke-width:0.991126"
     d="m 246.88386,309.84058 c -0.77342,3.039 -0.77342,6.83775 -0.77342,9.87674 0,-4.55849 0,-8.35724 0.77342,-12.15598 1.54683,-12.91573 5.41389,-26.59121 10.05438,-39.50694 -4.64048,15.95473 -9.28097,33.42895 -10.05438,41.78618 z"
     id="path90" />
  <path
     style="stroke-width:0.991126"
     d="m 283.23431,271.09339 c -2.32024,-12.91572 -5.4139,-26.5912 -10.05438,-39.50693 -0.77341,-2.27925 -6.18731,-6.83774 -8.50755,-3.039 0,0.75975 0,1.5195 0.77341,2.27925 -10.82779,31.1497 -27.06948,67.61764 -23.20241,101.04659 0.77341,5.31824 2.32024,11.39623 4.64048,16.71447 5.41389,27.35096 20.88217,31.90945 20.88217,31.90945 10.05438,-14.43522 16.2417,-33.42895 17.01511,-51.66291 3.86707,-17.47423 2.32024,-37.22769 -1.54683,-57.74092 z"
     id="path89" />
  <path
     style="stroke-width:0.991126"
     d="m 655.2464,158.65057 c 0,0 -0.77342,-0.75975 -1.54683,-0.75975 0.77341,0 0.77341,0.75975 1.54683,0.75975 z"
     id="path88" />
  <path
     style="stroke-width:0.991126"
     d="m 471.9473,194.35876 c 0,0.75975 -0.77341,0.75975 -1.54682,0 3.86706,-6.83774 8.50755,-19.75346 0.77341,-41.02643 -1.54683,-3.79875 -5.4139,-12.15598 -10.05438,-19.75347 0,-6.07799 0,-12.15599 -0.77342,-12.15599 0.77342,0.75976 2.32025,-0.75974 3.09366,-1.51949 12.37462,19.75347 27.06949,52.42267 8.50755,74.45538 z"
     id="path87" />
  <path
     style="stroke-width:0.991126"
     d="m 504.43069,111.54614 c 0,-4.55849 -15.46828,20.51322 -20.10877,30.38996 -2.32024,4.55848 -3.09365,9.11698 -3.09365,14.43522 -3.86707,-14.43522 -11.60121,-28.1107 -17.78852,-37.98744 0,-0.75975 0.77341,-1.5195 0,-2.27924 v -0.75976 c 0,0 -2.32024,0.75976 -3.09366,0.75976 -2.32024,1.5195 -3.09365,4.55849 -4.64048,9.11698 -0.77341,-1.51949 -2.32024,-3.03899 -2.32024,-4.55849 -2.32024,-3.79875 -5.4139,33.42894 -4.64048,47.10442 0.77341,12.91574 7.73413,25.07172 17.0151,30.38996 0,0 0.77341,-0.75976 2.32024,-3.039 l 2.32024,2.27924 c 0.77342,0.75976 2.32025,2.27926 2.32025,1.5195 7.73413,-6.83773 10.05438,-15.95472 10.05438,-25.83145 0.77341,0 1.54682,0 3.86707,-1.5195 v 0.75975 c 0,0.75975 0.77341,-0.75975 1.54682,-1.5195 0,0 0.77342,0 0.77342,-0.75975 0.77341,0.75975 1.54683,1.5195 3.09365,1.5195 3.09366,-0.75975 6.18731,-3.03899 7.73414,-5.31825 -3.09365,2.27926 -6.18731,3.79875 -10.82779,4.5585 4.64048,-3.039 10.82779,-10.63649 13.14804,-26.59121 2.32024,-3.79874 2.32024,-12.15598 2.32024,-18.99372 1.54682,-2.27925 3.86707,-4.55849 5.41389,-6.83774 0,15.95473 0.77342,37.22769 -8.50755,48.62393 13.14804,-10.63649 12.37462,-39.50694 12.37462,-53.94217 v -0.75975 c 0,-0.75975 0,-0.75975 -0.77341,-1.5195 -1.54683,-0.75974 -3.09366,0 -3.09366,0.75975 -1.54682,0.75975 -3.86706,3.039 -5.41389,4.5585 z"
     id="path86" />
  <path
     style="stroke-width:0.991126"
     d="m 513.71165,111.54614 v 1.5195 c 0,-0.75975 0.77342,-1.5195 0,-1.5195 z"
     id="path85" />
  <path
     style="stroke-width:0.991126"
     d="m 502.11045,42.409003 c 0,0 0.77341,0.759749 0,0 1.54682,0 0.77341,-0.759749 0,0 z"
     id="path84" />
  <path
     style="stroke-width:0.991126"
     d="m 502.11045,42.409003 c 0,-0.759749 -0.77342,-1.519498 -0.77342,-1.519498 -1.54683,1.519498 -0.77341,3.038996 0.77342,1.519498 0,0.759749 0,0.759749 0,0 z"
     id="path83" />
  <path
     style="stroke-width:0.991126"
     d="m 638.23129,229.30721 c 0,-0.75975 0,-0.75975 0,0 h -0.77341 c -0.77342,-0.75975 0.77341,0 0.77341,0 z"
     id="path82" />
  <path
     style="stroke-width:0.991126"
     d="m 659.88688,167.76755 c 0,0 -0.77341,0.75976 0,0 v 1.5195 c 0.77341,0 0,-1.5195 0,-1.5195 z"
     id="path81" />
  <path
     style="stroke-width:0.991126"
     d="m 598.01377,67.480713 c 0.77341,-1.519497 0,-1.519497 0,0 0,0.759749 0,0 0,0 z"
     id="path80" />
  <path
     style="stroke-width:0.991126"
     d="m 604.97449,96.351173 c 1.54683,5.318227 3.09366,9.876727 3.09366,15.954717 0,3.79875 -4.64048,23.55222 -10.05438,21.27297 0.77341,0 0.77341,0.75975 1.54683,0.75975 0.77341,0 0.77341,1.5195 0.77341,0.75974 12.37462,-11.39622 12.37462,-24.31196 7.73414,-40.266677 -1.54683,-6.83774 -3.86707,-23.552216 -10.05438,-27.35096 0,0.759749 -0.77342,1.519498 -0.77342,2.279247 1.54683,7.597488 6.96073,25.071713 7.73414,26.591213 z"
     id="path79" />
  <path
     style="stroke-width:0.991126"
     d="m 598.01377,133.57886 c 0,0 -0.77342,0 0,0 -0.77342,0 0,0 0,0 z"
     id="path78" />
  <path
     style="stroke-width:0.991126"
     d="m 597.24035,67.480713 c -0.77341,0 -0.77341,-2.279246 -1.54682,-2.279246 0,0 0.77341,1.519497 0,1.519497 -1.54683,1.519498 -1.54683,1.519498 0,0 v 2.279247 c 1.54682,-0.759749 1.54682,-0.759749 1.54682,-1.519498 z"
     id="path77" />
  <path
     style="stroke-width:0.991126"
     d="m 690.05002,208.03424 c 0.77342,0.75975 1.54683,0.75975 2.32024,0 4.64049,-5.31824 6.96073,-10.63649 7.73414,-16.71447 -1.54683,6.07798 -4.64048,12.15597 -10.05438,16.71447 z"
     id="path76" />
  <path
     style="stroke-width:0.991126"
     d="m 665.30078,306.04184 c 2.32024,3.039 6.96072,11.39623 12.37462,13.67548 -8.50755,-8.35724 -13.92145,-17.47423 -17.78852,-27.35096 0.77341,5.31824 2.32024,9.87673 5.4139,13.67548 z"
     id="path75" />
  <path
     style="stroke-width:0.991126"
     d="m 662.20712,201.95625 c -4.64048,-6.83774 -9.28097,45.58493 -7.73414,65.3384 v 4.5585 c 0,0.75974 0,2.27924 0.77342,3.03899 0.77341,6.07799 2.32024,12.15598 3.86707,17.47422 -0.77342,-2.27924 -0.77342,-5.31824 -1.54683,-7.59749 4.64048,12.91573 13.14803,24.31197 24.74924,32.6692 0,0 12.37463,-6.83774 13.92145,-26.59121 -0.77341,10.63649 -3.86707,20.51322 -13.14803,28.11071 -2.32024,1.5195 -3.86707,1.5195 -6.18732,0.75975 1.54683,1.5195 3.09366,3.039 5.4139,4.55849 -5.41389,5.31824 -16.24169,18.23398 -27.06948,31.90945 -2.32025,2.27925 -3.86707,3.79875 -3.86707,4.55849 -19.33535,22.79247 -34.03021,48.62393 -27.06949,79.01389 -0.77341,-6.83775 -0.77341,-14.43524 0,-18.23398 0,-6.83774 2.32024,-12.91573 4.64048,-18.23397 -3.86706,15.19498 -2.32024,31.1497 3.86707,44.06544 0,0 21.65559,-2.27926 37.89728,-28.11072 -7.73413,15.95473 -19.33534,28.87046 -37.89728,33.42895 -2.32024,0.75975 -3.86707,0 -5.41389,-2.27925 0,0.75976 0.77341,1.5195 0.77341,2.27925 0,0.75975 -0.77341,3.039 -0.77341,3.039 14.69486,-0.75975 27.8429,-13.67548 37.12386,-25.83146 20.10876,-26.59121 24.74925,-66.09815 24.74925,-98.76735 0,-1.5195 -2.32024,-1.5195 -3.09366,-1.5195 v -6.83773 c 10.05438,-6.83775 14.69487,-20.51323 15.46828,-32.6692 0.77341,-28.87046 -20.10876,-57.74092 -34.03021,-81.29313 0.77341,-0.75975 1.54683,-1.5195 0.77341,-2.27925 -0.77341,-0.75974 -1.54682,-0.75974 -3.09365,0 -0.77342,-1.5195 -2.32024,-3.039 -3.09366,-4.55849 z"
     id="path74" />
  <path
     style="stroke-width:0.991126"
     d="m 526.08628,401.77019 c 0,1.5195 -0.77342,2.27925 -0.77342,3.79874 -2.32024,15.19498 0.77342,24.31197 3.86707,28.87046 -6.96072,-8.35723 -6.18731,-20.51321 -3.09365,-32.6692 z"
     id="path73" />
  <path
     style="stroke-width:0.991126"
     d="m 528.40652,373.65949 c -6.18731,15.95472 -20.88218,58.50066 1.54683,69.89689 0.77341,0 0.77341,-2.27924 1.54682,-2.27924 0.77342,-0.75976 1.54683,-1.5195 2.32024,-3.039 1.54683,0.75974 2.32025,1.5195 2.32025,1.5195 6.18731,-7.59749 10.05438,-19.75347 8.50755,-29.63021 -0.77341,-5.31824 -3.09366,-15.19497 -4.64048,-22.79246 -0.77342,-6.83775 -1.54683,-14.43523 -4.64049,-15.95473 -0.77341,0 -3.09365,1.5195 -3.86707,1.5195 v 0.75975 c -1.54682,-0.75975 -2.32024,-0.75975 -3.09365,0 z"
     id="path72" />
  <path
     style="stroke-width:0.991126"
     d="m 560.8899,405.56893 c -2.32024,8.35725 -5.4139,20.51323 -6.18731,26.59122 -1.54683,9.87673 1.54683,21.27296 6.96073,28.87045 l -1.54683,1.5195 c -5.4139,4.55849 -6.18731,-9.87674 -7.73414,-12.91573 -2.32024,-7.59749 -3.86707,-15.19498 -2.32024,-22.79247 1.54682,-3.79874 7.73414,-14.43522 10.82779,-21.27297 z"
     id="path71" />
  <path
     style="stroke-width:0.991126"
     d="m 557.02283,464.06959 c 0,0 0.77342,3.79875 1.54683,3.79875 6.96072,-2.27925 10.05438,-8.35724 12.37462,-15.19498 2.32024,-5.31823 4.64048,-13.67548 3.09366,-25.83146 -0.77342,-6.83773 -6.18731,-25.07171 -7.73414,-31.1497 0,-0.75974 -0.77342,0 -1.54683,0.75976 -1.54683,0 -4.64048,0.75974 -4.64048,2.27924 v 0.75974 c -4.64049,5.31825 -6.96073,17.47423 -8.50756,22.79247 -4.64048,15.95473 -3.09365,28.87046 5.4139,41.78618 z"
     id="path70" />
  <path
     style="stroke-width:0.991126"
     d="m 494.37631,376.69848 h 0.77341 c -0.77341,0 -0.77341,0 -1.54683,-0.75975 0.77342,0 0.77342,0 0.77342,0.75975 0.77341,0 0,0 0,0 z"
     id="path69" />
  <path
     style="stroke-width:0.991126"
     d="m 494.37631,375.93873 c -1.54683,-2.27924 -2.32025,-4.55849 -3.86707,-6.83774 1.54682,3.039 2.32024,5.31824 3.86707,6.83774 z"
     id="path68" />
  <path
     style="stroke-width:0.991126"
     d="m 714.02585,529.408 c -0.77341,1.5195 -0.77341,2.27924 0,0 z"
     id="path67" />
  <path
     style="stroke-width:0.991126"
     d="m 660.66029,532.44699 c 0,0 0,0.75975 0,0 l 1.54683,-1.51949 c 0,0.75974 -0.77341,0.75974 -1.54683,1.51949 z"
     id="path66" />
  <path
     style="stroke-width:0.991126"
     d="m 587.95939,457.23186 c -1.54683,8.35723 0,17.47422 5.41389,25.07171 -1.54682,0.75975 -2.32024,1.51949 -3.86706,1.51949 -3.09366,0.75976 -1.54683,-0.75974 -3.09366,-3.79874 -3.86707,-7.59749 -1.54683,-15.19497 1.54683,-22.79246 z"
     id="path65" />
  <path
     style="stroke-width:0.991126"
     d="m 588.7328,487.62181 c 6.18731,-0.75975 10.05438,-3.03899 13.92145,-6.83774 5.4139,-3.79874 12.37462,-12.15598 13.14804,-29.6302 0,-6.83774 -3.09366,-25.83147 -4.64049,-31.90946 0,-0.75974 -0.77341,-0.75974 -2.32024,0.75976 -0.77341,-0.75976 -1.54683,-0.75976 -2.32024,-0.75976 -6.96072,0.75976 -17.0151,21.27297 -20.10876,26.59122 -7.73414,13.67547 -9.28097,30.38994 0,44.06543 -0.77341,0.75975 1.54683,-2.27925 2.32024,-2.27925 z"
     id="path64" />
  <path
     style="stroke-width:0.991126"
     d="m 597.24035,411.64692 c 0.77342,1.5195 1.54683,2.27926 2.32025,3.039 v -0.75975 c -0.77342,-0.75975 -2.32025,-1.51949 -2.32025,-2.27925 z"
     id="path63" />
  <path
     style="stroke-width:0.991126"
     d="m 599.5606,414.68592 h 1.54682 c 2.32025,-1.5195 3.86707,-3.79874 4.64049,-6.07799 -1.54683,2.27925 -3.86707,4.55849 -6.18731,6.07799 z"
     id="path62" />
  <path
     style="stroke-width:0.991126"
     d="m 598.78718,415.44567 c 0,0 0.77342,-0.75975 0,0 0.77342,-0.75975 0.77342,-0.75975 0,0 0,-0.75975 -0.77341,0 0,0 z"
     id="path61" />
  <path
     style="stroke-width:0.991126"
     d="m 558.56966,533.96649 c 0.77341,0 0.77341,-3.79875 0.77341,-3.79875 l 0.77342,-0.75974 c -3.86707,-2.27925 -10.8278,-12.15598 -12.37463,-14.43524 -6.96072,-7.59749 -10.82779,-16.71446 -13.14803,-26.5912 -1.54683,-6.83774 0,-13.67548 -0.77342,-19.75347 0,-2.27925 -0.77341,-8.35724 -2.32024,-12.91573 0.77342,0.75974 1.54683,1.5195 2.32024,3.03899 1.54683,11.39623 4.64049,31.1497 7.73414,40.26669 3.09366,11.39623 10.8278,21.27297 20.88218,27.35096 -0.77342,1.5195 -1.54683,2.27924 -2.32024,3.79874 0.77341,0.75976 1.54682,0.75976 2.32024,0 0.77341,-0.75974 0.77341,-2.27924 1.54683,-3.03899 l 4.64048,2.27925 c 0,0 13.92145,-15.95473 -6.18731,-48.62393 -4.64048,-7.59749 -20.88218,-25.83147 -26.29607,-31.90945 -0.77342,-0.75975 -1.54683,0.75975 -0.77342,3.79874 l -2.32024,-2.27925 c 0.77341,-1.51949 1.54683,-3.03898 0.77341,-3.79874 l -0.77341,0.75976 c -0.77341,0 -3.09366,-1.5195 -3.86707,-1.5195 -5.4139,3.79874 4.64048,31.1497 5.4139,36.46794 2.32024,21.27296 5.41389,41.78618 23.97583,51.66292 z"
     id="path60" />
  <path
     style="stroke-width:0.991126"
     d="m 404.66029,413.16642 c -1.54682,2.27925 -3.09365,4.55849 -3.86707,7.59749 1.54683,-3.79874 3.86707,-6.83774 6.18732,-9.87673 z"
     id="path59" />
  <path
     style="stroke-width:0.991126"
     d="m 436.37026,384.29597 c 0,1.5195 3.09366,1.5195 2.32024,-0.75975 -0.77341,-2.27924 -2.32024,-2.27924 -3.86706,-0.75974 -0.77342,0 -1.54683,0 -1.54683,0.75974 -6.18731,3.79875 -15.46828,14.43523 -16.24169,15.19498 -3.09366,3.79874 -6.96073,7.59749 -9.28097,11.39623 4.64048,-4.5585 12.37462,-7.59749 17.0151,-12.15598 0.77342,-0.75975 5.4139,-5.31824 8.50756,-9.11698 v 1.5195 c -7.73414,7.59748 -20.88218,23.55221 -26.29607,31.90944 -6.18732,9.87674 -7.73414,22.79247 -5.4139,35.70819 -5.4139,0 -1.54683,-6.83773 -2.32024,-11.39623 -0.77342,-9.11698 -0.77342,-18.23397 2.32024,-25.83146 -6.18731,11.39624 -8.50756,24.31197 -4.64049,40.26669 v 0.75975 c 1.54683,0 3.09366,0.75975 4.64049,0.75975 0,1.51949 0.77341,2.27925 0.77341,3.79874 0,0 22.429,4.5585 31.70997,-33.42895 2.32024,-8.35723 4.64048,-34.94844 4.64048,-44.06542 0,-1.5195 -0.77341,-0.75976 -2.32024,0 -0.77341,-1.5195 0,-2.27925 0,-4.5585 0,0.75975 0,0.75975 0,0 z"
     id="path58" />
  <path
     style="stroke-width:0.991126"
     d="m 365.9896,384.29597 c -7.73414,-6.83774 -23.97583,-18.23397 -30.16314,-22.03272 h -0.77342 v -3.039 c 10.05438,6.078 22.42901,14.43524 30.93656,25.07172 z"
     id="path57" />
  <path
     style="stroke-width:0.991126"
     d="m 337.37328,380.49722 c 0,0.75976 0.77342,2.27926 0.77342,3.039 0.77341,4.55849 0.77341,8.35724 0.77341,9.87674 1.54683,5.31824 3.09366,10.63647 5.4139,15.95472 0.77341,1.5195 1.54683,3.79874 1.54683,4.5585 5.41389,13.67548 18.56193,22.79246 32.48338,23.55221 0,0 7.73414,-12.15599 3.09366,-29.63021 -3.09366,-22.79246 -29.38973,-42.54593 -45.63142,-53.94216 0,0 0,-0.75976 -0.77342,-0.75976 h -0.77341 -0.77342 c -0.77341,0.75976 -1.54682,2.27926 -1.54682,3.039 0,6.07799 3.09365,17.47423 5.41389,24.31196 z"
     id="path56" />
  <path
     style="stroke-width:0.991126"
     d="m 512.93824,287.80787 c 29.38973,-28.87046 0.77341,-79.01388 -17.01511,-104.08559 -0.77341,-1.51949 -3.09365,0.75975 -2.32024,2.27925 16.24169,23.55221 40.21752,63.81889 22.429,93.44911 4.64049,-9.87674 7.73414,-27.35096 -3.09365,-52.42267 -3.09366,-7.59749 -13.92145,-23.55222 -20.88218,-33.42895 0,-2.27925 0,-4.5585 -0.77341,-4.5585 1.54683,1.5195 3.09366,-1.5195 1.54683,-2.27924 -1.54683,-1.5195 -2.32024,0.75974 -3.86707,3.79874 -0.77342,-0.75974 -1.54683,-2.27924 -2.32024,-2.27924 -3.86707,-4.55849 -4.64049,44.82518 -2.32025,63.05914 1.54683,15.19498 10.05439,28.87046 20.88218,35.70821 1.54683,1.51949 3.09366,2.27924 5.4139,3.79873 2.32024,-1.51949 2.32024,-2.27924 2.32024,-3.03899 z"
     id="path55" />
  <path
     style="stroke-width:0.991126"
     d="m 621.21618,325.79531 c -1.54682,-2.27925 -2.32024,-5.31824 -3.09365,-8.35724 3.86707,9.11699 10.05438,17.47423 17.0151,23.55222 0,0 3.09366,-2.27925 5.4139,-6.83774 -1.54683,3.03899 -3.86707,5.31824 -6.18731,7.59749 -3.86707,5.31823 -11.60121,-12.15599 -13.14804,-15.95473 z"
     id="path54" />
  <path
     style="stroke-width:0.991126"
     d="m 652.92615,312.87958 c 1.54683,-28.87045 -13.92145,-59.26041 -26.29607,-83.57237 -0.77341,-1.5195 -3.09365,-0.75975 -2.32024,0.75975 7.73414,15.95472 19.33535,40.26669 22.429,63.05916 -0.77341,-5.31825 -2.32024,-10.63649 -3.86707,-16.71448 -3.09365,-9.11699 -13.14803,-31.14971 -19.33534,-44.06544 0.77341,0 0.77341,-0.75974 0,-1.51949 -0.77342,-0.75975 -0.77342,-0.75975 -1.54683,-0.75975 -0.77342,-1.5195 -1.54683,-3.79875 -2.32024,-4.55849 -2.32025,-3.79875 -4.64049,13.67548 -6.18731,32.6692 -0.77342,2.27924 -0.77342,4.55849 -0.77342,4.55849 -3.86707,31.1497 -1.54683,60.02016 21.65559,82.81262 10.8278,-6.83774 17.78852,-20.51322 18.56193,-32.6692 z"
     id="path53" />
  <path
     style="stroke-width:0.991126"
     d="m 635.13763,346.30853 c -0.77341,0 -0.77341,0 0,0 -0.77341,0 -0.77341,0 0,0 -1.54682,0 0,0.75974 0,0 z"
     id="path52" />
  <path
     style="stroke-width:0.991126"
     d="m 578.67842,571.95393 c -4.64048,1.51949 -9.28097,3.79875 -12.37462,7.59749 -0.77342,0.75975 -3.09366,3.79874 -5.4139,7.59748 4.64048,-6.83773 10.8278,-11.39622 17.78852,-15.19497 z"
     id="path51" />
  <path
     style="stroke-width:0.991126"
     d="m 635.91105,478.50483 c 0.77341,-3.039 2.32024,-5.31825 3.86707,-7.59749 -2.32024,2.27924 -3.86707,5.31824 -3.86707,7.59749 z"
     id="path50" />
  <path
     style="stroke-width:0.991126"
     d="m 639.0047,470.90734 c 3.09366,-5.31825 6.96073,-10.63649 9.28097,-12.91574 -3.09366,3.039 -6.18731,7.59749 -9.28097,12.91574 z"
     id="path49" />
  <path
     style="stroke-width:0.991126"
     d="m 627.4035,450.39411 c -1.54683,-3.79874 -2.32025,-6.83773 -3.09366,-10.63647 0.77341,4.55849 1.54683,8.35723 3.09366,10.63647 z"
     id="path48" />
  <path
     style="stroke-width:0.991126"
     d="m 294.83552,461.79035 c -1.54683,-3.03899 -3.09366,-6.83774 -3.86707,-10.63648 4.64048,9.87673 9.28097,18.99371 13.92145,25.83146 -3.86707,-4.55849 -7.73414,-9.87674 -10.05438,-15.19498 z"
     id="path47" />
  <path
     style="stroke-width:0.991126"
     d="m 374.49715,513.45327 c 0,0 10.8278,-23.55221 -3.86707,-50.90317 -1.54683,-4.5585 -3.09365,-9.11699 -5.41389,-13.67548 -18.56194,-33.42895 -60.32629,-51.66292 -92.80967,-63.8189 -1.54683,-0.75975 -2.32025,2.27925 -0.77342,3.03899 26.29608,10.63649 64.96677,28.11071 85.07553,55.46167 -4.64048,-4.5585 -9.28096,-9.11699 -15.46828,-12.91573 -12.37462,-8.35724 -53.36556,-26.59122 -67.28701,-31.14971 h -0.77341 c -1.54683,-4.55848 -3.09366,-7.59748 -3.09366,-7.59748 1.54683,0 2.32025,-3.03899 0.77342,-3.03899 -10.05438,-2.27926 13.14803,54.70191 14.69486,59.2604 6.18731,14.43522 14.69487,30.38996 26.29608,41.02644 13.92145,17.47422 37.89728,27.35095 62.64652,24.31196 z"
     id="path46" />
  <path
     style="stroke-width:0.991126"
     d="m 555.476,225.50847 c 0,0 0.77342,0 0,0 z"
     id="path45" />
  <path
     style="stroke-width:0.991126"
     d="m 553.15576,45.447998 c 0.77342,0 0.77342,0 0,0 0.77342,0 0,0 0,0 -0.77341,1.519497 -0.77341,1.519497 0,0 z"
     id="path44" />
  <path
     style="stroke-width:0.991126"
     d="m 555.476,224.74872 c 0,0 -0.77341,0 0,0 0,-0.75975 0.77342,-0.75975 0.77342,-0.75975 -0.77342,0 -1.54683,0 -2.32024,-0.75975 0,0.75975 0.77341,1.5195 1.54682,1.5195 z"
     id="path43" />
  <path
     style="stroke-width:0.991126"
     d="m 555.476,223.98897 c 3.09366,-0.75975 6.96073,-4.55849 10.8278,-10.63648 -3.09366,3.79873 -6.96073,7.59749 -10.8278,10.63648 z"
     id="path42" />
  <path
     style="stroke-width:0.991126"
     d="m 416.2615,305.28209 c 1.54683,-11.39623 0.77342,-22.79246 -0.77341,-34.1887 0.77341,6.83775 1.54683,12.91574 1.54683,19.75347 0,3.79875 0,9.11699 -0.77342,14.43523 z"
     id="path41" />
  <path
     style="stroke-width:0.991126"
     d="m 365.21619,239.18395 c -1.54683,15.95472 -2.32025,33.42894 -1.54683,50.14342 v 4.55849 c 1.54683,29.6302 14.69486,55.46167 34.03021,66.09815 0,0 16.24169,-18.23397 17.78852,-53.94217 v -0.75975 c 0.77341,-14.43523 -1.54683,-31.90945 -7.73414,-51.66292 -4.64048,-14.43522 -23.20242,-49.38367 -31.70997,-65.33839 0,-0.75976 0,-1.5195 0.77341,-2.27925 0,-0.75975 0.77342,-3.039 0.77342,-6.078 h -0.77342 c 0.77342,0.75976 -0.77341,4.5585 -1.54683,6.83775 -0.77341,-0.75975 -1.54682,-2.27925 -1.54682,-3.039 -3.09366,-5.31824 -6.18731,23.55221 -8.50755,53.94217 0.77341,0.75975 0.77341,0.75975 0,1.5195 z"
     id="path40" />
  <path
     style="stroke-width:0.991126"
     d="m 415.48809,270.33365 c -3.86707,-32.6692 -18.56194,-64.57865 -34.03021,-92.68936 0.77341,-0.75975 1.54683,-2.27925 1.54682,-3.03899 -2.32024,-3.039 -3.86706,1.5195 -4.64048,5.31823 0.77342,0 2.32024,-0.75974 3.09366,-2.27924 13.92145,26.59121 29.38973,60.02016 34.03021,92.68936 z"
     id="path39" />
  <path
     style="stroke-width:0.991126"
     d="m 473.49413,244.50219 c -6.18731,-12.91573 -27.8429,-43.30569 -40.21752,-59.26041 0,-3.03899 0,-8.35724 -0.77342,-9.11699 0.77342,0.75975 1.54683,0 1.54683,0 17.78852,23.55222 34.80363,49.38368 45.63142,77.49438 3.86707,10.63649 6.96073,22.03272 7.73414,34.1887 -2.32024,-12.91573 -6.18731,-27.35096 -13.92145,-43.30568 z"
     id="path38" />
  <path
     style="stroke-width:0.991126"
     d="m 492.05606,278.69088 c -5.41389,-38.74719 -34.80362,-73.69564 -57.23262,-103.32584 1.54682,-0.75974 2.32024,-3.03899 1.54682,-3.79874 -3.86707,-3.79875 -6.18731,3.79874 -6.96072,7.59749 l -1.54683,-1.5195 c -6.96073,-7.59749 -3.09366,73.69563 1.54683,103.32584 4.64048,28.11071 22.429,52.42267 44.858,63.05916 0,0.75974 0.77342,0.75974 0.77342,0.75974 16.24169,-15.95472 19.33534,-44.06544 17.0151,-66.09815 z"
     id="path37" />
  <path
     style="stroke-width:0.991126"
     d="m 560.8899,372.13999 c -10.05438,4.55849 -13.92145,-9.11699 -17.01511,-18.23397 -3.09365,-8.35724 -4.64048,-16.71448 -4.64048,-25.83147 2.32024,15.19498 8.50755,31.1497 17.01511,43.30569 0,0 39.44411,-7.59749 34.80362,-81.29312 -0.77341,-13.67548 -9.28096,-53.94217 -13.92145,-74.45539 l 1.54683,-3.039 c 5.4139,24.31197 15.46828,63.81891 13.92145,98.76735 3.09366,-33.42894 -3.86707,-69.13714 -10.82779,-99.52709 0,-0.75976 -0.77342,-0.75976 -0.77342,-0.75976 -1.54683,-2.27924 -3.09365,-1.51949 -4.64048,0 0,-0.75974 0,-1.51949 -0.77342,-1.51949 -3.09365,-10.63649 -29.38972,56.98116 -35.57703,83.57238 -0.77342,3.79873 -1.54683,8.35723 -1.54683,12.91572 v 0.75975 c -3.09366,23.55222 3.86707,48.62392 15.46828,68.3774 0,0.75974 0.77341,0.75974 1.54682,0.75974 8.50756,-1.5195 15.46828,-6.83774 20.88218,-14.43522 -4.64048,4.55849 -10.05438,8.35723 -15.46828,10.63648 z"
     id="path36" />
  <path
     style="stroke-width:0.991126"
     d="m 575.58476,361.50351 c 10.8278,-12.15599 15.46828,-30.38996 17.01511,-50.14343 -0.77341,8.35724 -2.32024,15.95473 -4.64048,23.55222 -3.09366,9.11699 -6.96073,18.23396 -12.37463,26.59121 z"
     id="path35" />
  <path
     style="stroke-width:0.991126"
     d="m 746.50924,418.48467 c 18.56193,-12.15598 28.61631,-31.1497 33.25679,-53.94217 l -4.64048,13.67548 c -6.18731,15.19498 -16.24169,30.38995 -28.61631,40.26669 z"
     id="path34" />
  <path
     style="stroke-width:0.991126"
     d="m 722.53341,423.04316 c -3.09366,0.75975 -13.92145,-18.99373 -15.46828,-23.55222 1.54683,4.55849 3.09365,8.35724 4.64048,12.91574 1.54683,3.03899 6.96073,15.95472 11.60121,15.95472 8.50755,-0.75975 16.24169,-4.55849 23.20242,-9.87673 -4.64049,3.03899 -10.05439,6.07799 -16.2417,7.59749 -2.32024,0.75974 -5.41389,-3.039 -7.73413,-3.039 z"
     id="path33" />
  <path
     style="stroke-width:0.991126"
     d="m 608.06815,530.9275 c -1.54683,-0.75976 3.09366,-3.79875 6.96072,-6.078 -0.77341,0.75975 -0.77341,2.27925 -1.54682,3.039 0,0 11.6012,9.87673 31.70997,-3.039 -11.60121,9.11699 -25.52266,14.43523 -37.12387,6.078 z"
     id="path32" />
  <path
     style="stroke-width:0.991126"
     d="m 632.04398,510.41427 c -4.64048,1.5195 -9.28097,3.79875 -12.37462,7.59749 -6.18731,2.27925 -10.8278,6.83774 -14.69487,14.43523 h 0.77342 c 17.0151,15.95473 40.99093,-4.55849 53.36556,-17.47423 1.54682,-1.51949 0.77341,-2.27924 -0.77342,-1.51949 l 6.96073,-6.83774 c 2.32024,-2.27925 -23.97583,0.75975 -33.2568,3.79874 z"
     id="path31" />
  <path
     style="stroke-width:0.991126"
     d="m 321.90501,284.76887 c 3.09365,-5.31823 4.64048,-11.39622 6.18731,-16.71447 8.50755,-22.03272 2.32024,-41.02643 -9.28097,-62.2994 1.54683,3.79874 3.09366,7.59749 5.4139,11.39623 5.4139,10.63648 6.96072,20.51322 6.18731,33.42895 0,2.27924 0,5.31823 -0.77341,9.11698 0.77341,-9.11698 -0.77342,-17.47422 -3.86707,-25.0717 -5.4139,-11.39624 -20.10876,-35.70821 -27.8429,-44.82518 0.77341,-3.79875 1.54682,-7.59749 1.54682,-11.39624 h 2.32025 c 0,0.75975 6.18731,9.11698 9.28096,13.67548 -5.41389,-9.11699 -11.60121,-19.75347 -14.69486,-16.71448 -0.77342,0 -1.54683,0.75976 -1.54683,0.75975 -0.77341,3.039 -0.77341,6.078 -1.54683,9.87674 0,0 -0.77341,0 -0.77341,0.75975 -1.54683,10.63648 -3.86707,41.78618 -3.09366,51.66292 5.4139,45.58493 32.48339,46.34467 32.48339,46.34467 z"
     id="path30" />
  <path
     style="stroke-width:0.991126"
     d="m 345.88084,338.71104 c 6.96072,-6.83773 10.82779,-15.95472 10.82779,-25.83146 2.32024,-6.83774 2.32024,-13.67548 0,-22.03272 -1.54683,-6.83773 -5.4139,-25.83146 -12.37462,-28.87045 -0.77341,0 0,1.51949 0,1.51949 v 0.75976 c -1.54683,1.5195 0.77341,3.03899 1.54683,2.27924 -0.77342,0.75975 9.28096,22.03272 10.05438,25.07172 1.54683,4.55848 0,9.87673 -0.77342,14.43522 -3.09365,-12.91572 -13.14803,-37.98744 -14.69486,-34.18869 -1.54683,4.55849 -5.4139,15.19498 -7.73414,23.55221 1.54683,-11.39623 6.18731,-23.55221 10.05438,-31.90946 0.77342,-1.51949 -1.54683,-3.03899 -2.32024,-1.51949 -5.4139,12.15598 -11.60121,30.38995 -10.05438,45.58493 -1.54683,25.07171 15.46828,31.1497 15.46828,31.1497 z"
     id="path29" />
  <path
     style="stroke-width:0.991126"
     d="m 359.02887,125.98137 c 0.77342,3.79875 3.86707,9.87674 3.86707,11.39624 1.54683,8.35723 0,18.23396 1.54683,26.5912 0.77342,10.63649 3.09366,21.27297 0.77342,31.90945 0,2.27925 -3.09366,8.35724 -6.18732,14.43523 2.32025,-6.07799 3.09366,-12.91573 2.32025,-19.75347 -0.77342,-12.15598 -4.64049,-39.50694 -8.50756,-53.18241 1.54683,-3.79875 3.86707,-7.59749 6.18731,-11.39624 z"
     id="path28" />
  <path
     style="stroke-width:0.991126"
     d="m 342.01377,233.10596 c 2.32024,-1.5195 3.86707,-3.039 5.4139,-5.31825 21.65558,-15.95472 22.429,-42.54593 19.33534,-68.37739 0,-2.27925 -3.86707,-26.59121 -7.73414,-35.70819 0.77342,-1.5195 -5.41389,-6.07799 -6.96072,-4.5585 -3.86707,6.83774 -8.50755,15.95473 -12.37462,25.83146 -4.64049,10.63648 -9.28097,22.03272 -10.8278,28.11071 -9.28096,43.30568 13.14804,60.02016 13.14804,60.02016 z"
     id="path27" />
  <path
     style="stroke-width:0.991126"
     d="m 403.88688,175.36504 c 0.77341,0.75976 2.32024,1.5195 3.09366,1.5195 43.31117,-18.23397 23.97583,-88.130857 10.82779,-120.800058 -0.77341,-1.519498 -1.54683,-0.759749 -1.54683,0.759748 13.14804,33.428953 28.61632,91.16985 -8.50755,114.72207 8.50755,-8.35724 18.56193,-25.83146 13.92145,-56.98116 -1.54683,-9.11699 -9.28097,-31.149697 -13.92145,-44.82518 3.09366,-5.318241 6.18731,-10.636484 5.4139,-10.636484 0.77341,1.519498 2.32024,0 1.54682,-1.519497 -1.54682,-3.038995 -4.64048,3.038996 -7.73413,9.876734 -0.77342,-2.279246 -1.54683,-3.798743 -2.32025,-5.318241 -3.09365,-6.837739 -20.10876,45.584918 -23.20241,65.338398 -3.09366,18.99371 3.86707,38.74719 17.78852,50.90317 0,0.75975 2.32024,-0.75975 4.64048,-3.039 z"
     id="path26" />
  <path
     style="stroke-width:0.991126"
     d="m 640.55153,148.01408 c 3.86707,3.79875 8.50756,6.83775 13.92145,9.87674 -4.64048,-2.27925 -7.73414,-4.55849 -10.82779,-8.35724 3.86707,2.27925 6.96072,3.79875 6.96072,3.79875 9.28097,-12.15598 11.60121,-29.6302 3.86707,-46.34468 -4.64048,-9.876737 -15.46828,-28.110701 -23.97583,-41.786183 0,-1.519498 0.77342,-3.038996 0.77342,-4.558493 3.09365,5.318242 7.73413,12.91573 8.50755,13.675479 4.64048,7.59749 8.50755,15.19498 12.37462,22.79246 4.64048,8.357237 9.28097,15.954727 11.60121,25.831457 1.54683,5.31825 -0.77341,37.22769 -7.73414,34.94845 0.77341,0 0.77341,0.75975 1.54683,0.75975 0.77341,0 0,1.51949 0,0.75975 18.56193,-24.31196 5.4139,-50.14343 -6.96073,-72.935877 -0.77341,-1.5195 -11.6012,-22.032724 -19.33534,-29.630213 0,-0.759748 -0.77342,-1.519497 -2.32025,-2.279246 -1.54682,-1.519498 -2.32024,-1.519498 -3.09365,0 -0.77342,0.759749 0,1.519498 0.77341,2.279246 0,0.759749 -0.77341,2.279247 -0.77341,3.038995 -4.64048,-6.837739 -8.50755,-11.396232 -8.50755,-9.116986 -1.54683,9.116986 -4.64049,37.987444 -3.09366,47.864174 2.32024,28.870457 16.24169,43.305687 26.29607,49.383667 z"
     id="path25" />
  <path
     style="stroke-width:0.991126"
     d="m 307.21014,283.24938 c -0.77341,-0.75975 -2.32024,-0.75975 -2.32024,0.75975 -6.18731,17.47422 -10.82779,37.22769 -11.60121,56.98116 1.54683,-20.51322 10.05438,-43.30569 13.92145,-55.46166 0,3.03899 7.73414,16.71446 7.73414,18.23396 2.32024,8.35724 6.18731,15.95473 7.73414,24.31196 1.54683,6.078 1.54683,12.91574 0.77341,18.99372 v -3.03898 c -3.09365,-15.95474 -16.24169,-56.22142 -18.56193,-50.14343 -3.09365,9.87673 -10.82779,39.50694 -11.60121,49.38367 0,2.27925 -0.77341,5.31824 -0.77341,7.59749 v -10.63648 12.15598 c -0.77342,35.70819 18.56193,39.50694 18.56193,39.50694 6.96073,-9.11698 10.8278,-21.27297 12.37462,-31.90945 3.86707,-15.19498 2.32025,-31.90946 -2.32024,-48.62393 0.77342,-1.5195 -9.28096,-31.1497 -13.92145,-28.1107 z"
     id="path24" />
  <path
     style="stroke-width:0.991126"
     d="m 456.47902,80.396443 c -0.77341,-3.798744 -3.09365,-12.91573 -5.41389,-19.753469 2.32024,-4.558492 5.41389,-9.116986 6.18731,-11.396232 6.96072,19.753469 15.46828,48.623921 -4.64049,61.539648 -1.54682,0.75975 -2.32024,0.75975 -3.09365,0 4.64048,-6.07799 9.28097,-15.194977 6.96072,-30.389947 z"
     id="path23" />
  <path
     style="stroke-width:0.991126"
     d="m 447.97147,111.54614 c 0.77342,0.75975 0.77342,1.5195 1.54683,1.5195 l 0.77341,0.75975 c 27.06949,-9.11699 17.01511,-47.104426 10.05438,-67.617644 v -1.519497 h -0.77341 -1.54683 c 0,-0.759749 0,-2.279247 -0.77341,-2.279246 -3.09366,0.759749 -6.18731,6.07799 -8.50755,12.155981 -0.77342,-2.279247 -1.54683,-4.558493 -2.32025,-5.318242 -1.54682,-3.798743 -13.14803,25.831461 -15.46827,36.467941 -2.32025,10.63649 1.54682,22.792467 9.28096,30.389957 0.77342,0 3.86707,-0.75976 7.73414,-4.5585 z"
     id="path22" />
  <path
     style="stroke-width:0.991126"
     d="m 482.7751,116.86438 c 0.77341,0.75976 1.54682,2.27925 2.32024,3.039 0.77341,0.75975 -0.77342,0.75975 0,0.75975 16.24169,-9.87674 18.56193,-25.071717 18.56193,-43.305682 0,-6.837739 5.4139,-30.389953 0,-35.708194 0,0 0,2.279247 -0.77341,2.279246 l -0.77341,-0.759749 V 43.9285 l -0.77342,0.759749 c -0.77341,6.837739 1.54683,28.870455 1.54683,32.669199 0,7.597495 -2.32024,13.675485 -3.86707,21.272965 -0.77342,2.279247 -9.28097,22.792467 -12.37462,18.233967 -0.77342,-0.75974 -0.77342,-1.5195 -1.54683,-2.27924 4.64048,-6.07799 8.50755,-14.43523 9.28097,-22.792467 0.77341,-8.35723 0,-24.31196 -0.77342,-35.708191 3.09366,-3.798744 5.4139,-8.357238 7.73414,-11.396233 0,-0.759749 0,-1.519498 0.77342,-1.519498 -2.32025,3.798743 -5.4139,7.597488 -8.50756,12.155982 -0.77341,-7.597489 -1.54683,-12.155981 -2.32024,-10.636484 -3.86707,6.07799 -15.46828,24.311962 -17.78852,31.149702 -11.60121,31.149699 3.86707,46.344679 3.86707,46.344679 1.54683,-1.5195 3.86707,-3.039 5.4139,-5.31825 z"
     id="path21" />
  <path
     style="stroke-width:0.991126"
     d="m 653.69957,173.0858 v -11.39624 c 0,-4.55849 -15.46828,20.51323 -20.10876,30.38996 -3.86707,9.11698 -3.86707,22.03271 0,31.1497 0,0 1.54682,0 3.09365,-0.75975 0,2.27924 0.77342,3.79874 1.54683,6.07799 23.20242,-2.27925 23.20242,-42.54593 23.20242,-60.02015 0,-1.5195 0,-2.27926 0,0 0,18.23397 -1.54683,50.90317 -21.65559,58.50066 -3.09366,0.75974 0,-2.27926 0,-5.31825 4.64048,-3.039 10.82779,-10.63649 13.14804,-27.35096 0.77341,-3.03899 0.77341,-8.35723 0.77341,-14.43523 3.09365,-3.79873 6.18731,-8.35723 6.96072,-9.87673 0,0 -0.77341,0 -0.77341,-0.75975 -2.32024,0 -4.64048,1.5195 -6.18731,3.79875 z"
     id="path20" />
  <path
     style="stroke-width:0.991126"
     d="m 591.82646,130.53986 0.77341,-0.75974 c 1.54683,1.5195 3.09366,2.27924 4.64048,3.79874 -1.54682,-0.75975 -3.09365,-2.27925 -4.64048,-3.79874 7.73414,-7.59749 10.8278,-18.23398 8.50755,-28.87046 -1.54683,-5.318247 -4.64048,-15.194977 -7.73414,-23.552212 0.77342,-2.279246 2.32025,-5.318241 3.09366,-7.597488 v -0.759749 c -0.77341,2.279247 -2.32024,4.558493 -3.09366,7.597488 -3.09365,-8.357237 -6.18731,-14.435227 -6.96072,-12.15598 -2.32024,6.07799 -8.50755,24.311964 -10.05438,31.149694 -3.09366,28.110717 15.46828,34.948447 15.46828,34.948447 z"
     id="path19" />
  <path
     style="stroke-width:0.991126"
     d="m 621.21618,144.21534 c 6.96073,19.75347 16.2417,46.34468 -3.86707,58.50066 -2.32024,1.5195 -4.64048,0 -6.96072,-2.27925 3.09366,-1.5195 17.78852,-9.11698 14.69486,-35.70819 -0.77341,-3.79874 -2.32024,-11.39623 -4.64048,-18.99372 0.77341,0 0.77341,-0.75975 0.77341,-1.5195 z"
     id="path18" />
  <path
     style="stroke-width:0.991126"
     d="m 615.80229,134.33861 c -1.54683,-3.79875 -13.14804,25.83145 -15.46828,36.46794 -2.32024,10.63648 1.54683,22.03272 9.28097,29.6302 0.77341,2.27925 2.32024,3.79875 3.86707,6.07799 0,0 1.54682,1.5195 1.54682,0.75975 26.29608,-9.11698 16.2417,-47.86417 9.28097,-68.37739 0.77341,-0.75975 0.77341,-1.51949 0,-2.27925 0,0 -0.77341,0 -0.77341,0.75976 -0.77342,-1.5195 -4.64049,0.75974 -3.86707,2.27924 v 0.75975 c -0.77342,0.75975 -0.77342,1.5195 -1.54683,1.5195 0,-2.27925 -1.54683,-6.07799 -2.32024,-7.59749 z"
     id="path17" />
  <path
     style="stroke-width:0.991126"
     d="m 675.35516,191.31977 c 2.32024,7.59748 6.18731,14.43523 13.14803,19.75346 0.77342,0.75976 0.77342,-3.03899 1.54683,-3.03899 -3.09365,-2.27924 -9.28096,-9.87673 -10.82779,-12.91573 2.32024,2.27924 3.86707,3.79874 6.18731,5.31824 0,0 15.46828,-14.43522 4.64048,-46.34468 -1.54683,-3.79874 -5.4139,-11.39623 -9.28096,-18.99372 0,-2.27924 0,-3.79873 -0.77342,-3.79873 0.77342,0.75974 1.54683,0 1.54683,-0.75976 9.28097,15.95472 21.65559,39.50694 18.56193,60.02016 4.64048,-19.75347 -8.50755,-44.82518 -17.78852,-60.7799 v -1.5195 l -0.77341,0.75974 c -0.77341,-0.75974 -0.77341,-0.75974 -0.77341,0.75976 l -0.77342,0.75974 v -1.5195 l -2.32024,2.27926 c -2.32024,-3.79875 -3.86707,-6.83775 -5.4139,-8.35725 -2.32024,-3.79874 -5.4139,33.42895 -4.64048,47.10443 0.77341,8.35724 3.86707,15.19498 7.73414,21.27297 z"
     id="path16" />
  <path
     style="stroke-width:0.991126"
     d="m 702.42464,255.89841 c 0,1.5195 0,3.79875 0.77342,5.31825 0.77341,2.27924 1.54683,5.31824 2.32024,7.59749 -1.54683,-3.79875 -1.54683,-6.83774 -2.32024,-10.63648 0.77341,3.03899 2.32024,6.07799 4.64048,9.11698 0,0 20.10876,-5.31824 19.33535,-44.06543 0,-4.5585 -1.54683,-14.43523 -2.32024,-24.31197 1.54682,-3.79874 3.86707,-7.59748 3.09365,-8.35723 3.86707,24.31197 8.50756,67.61765 -17.0151,81.29313 -2.32025,0.75974 -3.86707,-0.75976 -4.64049,-3.039 0.77342,3.039 2.32024,5.31824 3.09366,8.35723 0,0.75976 0,-1.51949 0.77341,-2.27924 30.93656,-7.59749 22.42901,-61.53965 18.56194,-84.33212 0.77341,-0.75974 2.32024,-1.5195 2.32024,-1.5195 0,-0.75974 -3.09366,-1.5195 -3.09366,-1.5195 -1.54683,0 -3.09365,0.75976 -3.86707,2.27926 -0.77341,-3.79875 -0.77341,-6.078 -1.54683,-8.35725 -1.54682,-5.31823 -16.24169,31.1497 -20.10876,45.58494 -3.09365,9.11698 -2.32024,19.75346 0,28.87044 z"
     id="path15" />
  <path
     style="stroke-width:0.991126"
     d="m 489.73582,340.23054 c 0,-0.75975 0.77342,-2.27925 2.32024,-3.79874 -0.77341,3.03899 -2.32024,6.07799 -2.32024,8.35723 -0.77341,-2.27924 -0.77341,-3.79874 0,-4.55849 z"
     id="path14" />
  <path
     style="stroke-width:0.991126"
     d="m 495.92313,375.93873 c 0,0.75975 0,0.75975 0,0 0.77342,0.75975 4.64049,0 8.50756,-4.55849 13.92145,-12.91573 6.18731,-46.34468 2.32024,-60.7799 0,-0.75976 -1.54683,-0.75976 -2.32024,-0.75976 0,-0.75974 -1.54683,-1.5195 -1.54683,-1.5195 -6.18731,1.5195 -10.05438,20.51323 -12.37462,25.83147 -4.64049,12.15598 -4.64049,22.79246 0,33.42895 0,-1.5195 -0.77342,-2.27925 -0.77342,-3.79875 1.54683,5.31824 3.86707,9.11698 6.18731,12.15598 z"
     id="path13" />
  <path
     style="stroke-width:0.991126"
     d="m 598.78718,332.63305 c -6.96072,3.03899 -6.96072,28.87046 -8.50755,34.94845 -3.86707,16.71447 -3.86707,31.1497 6.96072,44.06542 -3.09365,-5.31823 -5.41389,-15.95472 -6.18731,-18.23396 0,-0.75975 -0.77341,-2.27925 -0.77341,-3.039 1.54683,8.35724 6.18731,15.95473 11.60121,20.51322 0,0 3.86707,-3.039 7.73414,-9.87674 -0.77342,2.27925 -2.32025,5.31825 -3.86707,7.59749 3.09365,-3.79874 4.64048,-7.59749 5.41389,-11.39623 2.32025,-6.83773 3.86707,-16.71448 1.54683,-31.1497 -1.54683,-6.07799 -6.96072,-22.03271 -10.82779,-30.38996 0.77341,-0.75974 1.54682,-2.27924 0.77341,-3.03899 l -1.54683,1.5195 c -0.77341,-0.75975 -0.77341,-1.5195 -0.77341,-2.27925 0,-0.75975 -0.77341,0 -1.54683,0.75975 z"
     id="path12" />
  <path
     style="stroke-width:0.991126"
     d="m 726.40047,463.30985 c -10.05438,6.07799 -17.78851,16.71447 -22.429,27.35096 -3.86707,5.31824 -6.96072,11.39623 -9.28096,18.99372 1.54682,-3.039 3.86706,-6.83775 6.18731,-9.87674 l -2.32025,9.11698 c 0,0 23.97584,13.67548 56.45922,-25.07171 5.4139,-6.07799 15.46828,-22.03271 22.429,-34.94844 0,0 0.77342,0 0.77342,-0.75975 -16.2417,28.1107 -46.40484,79.01388 -83.5287,65.3384 -0.77342,0 -1.54683,-0.75975 -0.77342,-2.27925 -0.77341,1.5195 -0.77341,3.039 -1.54683,5.31824 -3.09365,0 -6.18731,0.75975 -8.50755,0.75975 -5.4139,0.75975 -10.8278,4.5585 -14.69486,8.35724 -2.32025,0.75975 -3.86707,2.27925 -6.18732,3.79875 1.54683,-0.75976 3.09366,-1.5195 3.86707,-1.5195 -2.32024,3.039 -4.64048,6.83773 -5.41389,10.63648 0,0 13.14803,15.95473 36.35045,0.75975 -12.37462,10.63648 -27.8429,17.47422 -41.76435,4.55849 -2.32024,-2.27924 2.32024,-9.87673 3.86707,-12.91572 -3.86707,3.79873 -6.96073,8.35723 -8.50755,13.67548 0,0.75974 0,0.75974 0.77341,1.51949 18.56193,22.79246 46.40483,-3.03899 61.0997,-18.23397 h 0.77341 c 0,-0.75975 0,-0.75975 -0.77341,-1.5195 l 6.96072,-6.83774 c 3.09366,-1.5195 6.18731,-2.27925 9.28097,-3.79874 23.20242,-12.91574 37.89728,-43.30568 51.81873,-66.09815 0.77342,-0.75975 0,-1.5195 -0.77341,-2.27924 0,0 -0.77342,-0.75976 -1.54683,-0.75976 2.32024,-4.55849 4.64048,-8.35723 6.18731,-10.63648 2.32024,-5.31824 -42.53776,16.71447 -58.77946,27.35096 z"
     id="path11" />
  <path
     style="stroke-width:0.991126"
     d="m 502.11044,590.94765 c -6.18731,3.79874 -13.14803,-9.87674 -15.46827,-14.43523 -6.96073,-13.67548 -5.4139,-29.6302 -2.32025,-44.06543 1.54683,-9.87674 1.54683,-20.51322 3.86707,-29.63021 0.77342,-2.27924 9.28097,-18.99372 10.8278,-23.55221 0.77341,1.5195 1.54683,3.79875 2.32024,5.31825 -4.64048,13.67548 -10.82779,42.54593 -12.37462,56.22141 -1.54683,15.95472 4.64048,34.94844 16.24169,48.62393 -0.77341,0.75974 -1.54683,1.51949 -3.09366,1.51949 z"
     id="path10" />
  <path
     style="stroke-width:0.991126"
     d="m 506.75093,477.74507 c -0.77342,-1.5195 -2.32024,0 -3.86707,4.5585 -0.77342,-1.5195 -0.77342,-2.27925 -1.54683,-3.79874 0.77341,-0.75976 0.77341,-1.5195 0.77341,-2.27926 -4.64048,-6.83773 -15.46827,34.1887 -16.24169,36.46795 -7.73414,30.38996 -7.73414,57.74091 13.14804,82.81263 0,0 0.77341,2.27924 1.54683,2.27924 3.09365,-0.75975 5.41389,-2.27924 7.73414,-4.5585 0.77341,0.75976 1.54682,1.5195 1.54682,2.27926 0,0 27.8429,-9.87674 17.01511,-61.53966 -2.32024,-12.15598 -15.46828,-45.58493 -20.10876,-56.22142 z"
     id="path9" />
  <path
     style="stroke-width:0.991126"
     d="m 598.01377,564.35644 c -3.09366,0.75975 -6.18731,2.27925 -9.28097,3.79875 -3.86707,0.75974 -6.96072,2.27924 -10.82779,3.79874 2.32024,-0.75975 4.64048,-1.5195 6.18731,-1.5195 -10.8278,7.59749 -19.33535,20.51322 -23.20242,34.94845 0,0 10.8278,12.15598 29.38973,11.39623 -12.37462,3.03899 -25.52266,1.51949 -37.12387,-9.87674 -3.09365,-3.03899 1.54683,-12.91572 6.18731,-20.51321 -3.86707,5.31824 -7.73414,12.15598 -10.05438,20.51321 0,0.75975 -2.32024,2.27925 -2.32024,3.039 17.78852,21.27297 40.99094,15.95472 61.87311,2.27924 4.64048,-2.27924 10.05438,-5.31823 15.46828,-9.11698 9.28097,-6.83774 31.70997,-32.6692 37.89728,-41.78619 6.18731,-6.07799 -45.63142,-1.5195 -64.19335,3.039 z"
     id="path8" />
  <path
     style="stroke-width:0.991126"
     d="m 676.12857,436.71864 c -10.82779,3.039 -20.10876,9.87673 -26.29607,19.75346 0,0 -0.77341,0.75976 -0.77341,1.5195 l 0.77341,-0.75974 c -4.64048,6.07799 -7.73414,13.67548 -9.28097,21.27297 0,0 23.97583,27.35095 63.41994,-2.27925 6.96073,-5.31824 20.88218,-20.51322 30.93656,-32.6692 h 2.32024 v 0.75975 c -22.429,27.35095 -65.74018,72.93589 -99.77039,40.26669 -1.54683,-0.75976 -1.54683,-3.039 -0.77342,-5.31825 -0.77341,1.5195 -1.54683,3.039 -1.54683,5.31825 0,0.75974 -1.54682,0.75974 -0.77341,0.75974 32.48338,39.50695 81.98187,-12.15598 104.41088,-38.74719 0.77341,0.75976 2.32024,0.75976 3.09365,0 0.77342,-2.27924 -0.77341,-3.79874 -4.64048,-4.55849 2.32024,-3.039 4.64048,-5.31824 6.18731,-7.59749 2.32024,-7.59749 -48.72507,-3.03899 -67.28701,2.27925 z"
     id="path7" />
  <path
     style="stroke-width:0.991126"
     d="m 456.47903,434.43939 c -15.46828,17.47422 -23.97584,42.54594 -22.42901,66.09815 h -3.09365 c -7.73414,-0.75975 -0.77342,-29.6302 0.77341,-34.94845 5.4139,-18.23396 20.10876,-29.6302 34.03021,-41.78618 10.05438,-8.35724 19.33535,-17.47422 29.38973,-25.07171 l 6.96073,-4.5585 c -16.2417,12.15599 -36.35046,30.38996 -45.63142,40.26669 z"
     id="path6" />
  <path
     style="stroke-width:0.991126"
     d="m 510.618,424.56266 c 6.18731,-14.43523 10.82779,-28.87046 14.69486,-42.54594 0,-0.75974 -0.77341,-1.5195 -1.54683,-2.27924 0,-0.75975 -0.77341,-1.5195 -2.32024,-0.75975 0,-3.039 -3.09365,0.75975 -4.64048,1.51949 -13.14804,6.83775 -26.29607,14.43524 -37.12387,23.55222 -29.38973,23.55222 -55.6858,51.66292 -53.36556,94.9686 0,0.75975 0.77342,1.5195 1.54683,1.5195 2.32024,0.75974 4.64048,0.75974 6.96073,0.75974 v 1.5195 c 0,0 35.57704,8.35724 65.74018,-52.42267 2.32024,-4.55848 6.18731,-14.43522 10.05438,-25.83145 z"
     id="path5" />
  <path
     style="stroke-width:0.991126"
     d="m 398.47298,543.08348 c -28.61631,-19.75347 -68.06042,-24.31197 -100.5438,-26.59122 -0.77342,0 -0.77342,0 -0.77342,0.75975 -0.77341,0 -0.77341,0.75975 0,1.5195 0,0.75975 0.77342,1.5195 0.77342,1.5195 h 0.77341 l 0.77341,0.75975 c 0,-0.75975 -0.77341,-0.75975 -0.77341,-0.75975 25.52266,2.27924 68.06042,4.55849 96.67674,20.51322 -4.64049,-2.27925 -10.05438,-3.79874 -15.46828,-5.31824 -14.69486,-4.55849 -58.77946,-9.11699 -74.24773,-9.87674 -1.54683,0 -1.54683,1.5195 0,4.55849 -2.32025,-3.03899 -4.64049,-6.07799 -6.18732,-9.11699 1.54683,3.039 4.64049,8.35725 4.64049,9.11699 1.54683,2.27925 3.86707,4.55849 6.96072,6.07799 5.4139,6.07799 13.14804,14.43523 20.88218,22.03272 5.41389,6.07799 10.82779,12.15598 17.0151,17.47422 l 9.28097,6.83774 c -9.28097,-6.07799 -17.01511,-15.19498 -24.74924,-22.79247 9.28096,9.11699 20.10876,18.23398 27.8429,24.31197 -0.77342,-0.75975 -1.54683,-0.75975 -3.09366,-1.5195 1.54683,0.75975 3.09366,1.5195 4.64048,3.039 0.77342,0.75975 1.54683,0.75975 2.32025,1.51949 19.33534,13.67548 47.95166,16.71448 71.92749,8.35725 -0.77342,0.75974 4.64048,-31.90946 -38.6707,-52.42267 z"
     id="path4" />
  <path
     style="stroke-width:0.991126"
     d="m 551.60893,223.98897 0.77342,-0.75975 0.77341,0.75975 -0.77341,-0.75975 c 19.33534,-18.23398 29.38973,-47.86418 23.97583,-76.73464 -3.86707,-21.27296 -16.24169,-65.338387 -25.52266,-88.890601 1.54683,-3.038995 2.32024,-5.318241 3.86707,-8.357237 0.77341,3.038996 1.54683,6.077991 1.54683,6.83774 3.09365,7.597488 6.96072,14.435227 9.28096,22.032715 4.64049,15.954726 8.50756,31.909453 12.37463,48.623923 3.86707,19.75346 6.18731,37.98744 1.54682,57.74091 -0.77341,4.55849 -6.96072,19.75347 -13.14803,30.38995 10.82779,-12.91573 17.78852,-28.1107 20.10876,-46.34467 1.54683,-20.51323 -6.96073,-41.02644 -11.60121,-60.77991 -4.64048,-17.474217 -6.96072,-36.467942 -13.14804,-53.182416 -0.77341,-2.279247 -3.86706,-13.675479 -7.73413,-8.357238 v 0.759749 c -1.54683,3.038996 -2.32025,6.077991 -3.86707,8.357238 -3.86707,-9.116987 -6.96073,-14.435228 -7.73414,-11.396233 -6.18731,15.194976 -22.42901,63.05915 -24.74925,79.77363 -11.60121,76.73462 34.03021,100.28684 34.03021,100.28684 z"
     id="path3" />
  <path
     style="stroke-width:0.991126"
     d="m 701.65123,353.90602 c -1.54683,15.19497 -0.77341,30.38995 5.4139,44.82518 -3.09366,-9.87673 -4.64049,-20.51322 -5.4139,-31.1497 v -12.15598 c 2.32024,21.27296 10.05438,43.30568 23.97583,61.53965 0,0 44.85801,-6.07799 55.6858,-68.3774 -0.77341,5.31825 -1.54683,10.63648 -2.32024,15.19498 6.18731,-19.75346 10.60591,-41.02643 8.28567,-60.7799 -3.09365,-26.59121 -12.15274,-52.42267 -18.34005,-78.25414 0.77341,0.75976 3.09365,-0.75974 3.09365,-2.27924 -0.77341,-3.03899 -3.09365,-3.03899 -5.41389,-1.5195 -0.77342,-3.03899 -1.54683,-6.07799 -2.32024,-8.35724 -3.86707,-13.67548 -47.17825,70.65664 -58.77946,104.84534 -3.86707,11.39624 -4.64048,24.31196 -3.86707,36.46795 z"
     id="path1" />
  <path
     d="M561.111782 619.504532c20.882175-40.217523 68.060423-87.39577 68.833837-109.05136 0-3.867069-75.794562 78.114804-81.981873 97.450151-16.241692 51.045317-29.389728 35.577039-30.936556 49.49849-17.015106-3.867069-38.670695-27.8429-40.990936-34.803626-3.093656-10.054381-23.975831-34.803625-23.975831-34.803625-3.867069-23.975831 4.640483-79.661631-9.280967-11.601209-35.577039-40.990937-46.404834-80.435045-45.63142-66.513595 2.320242 27.069486 40.990937 69.607251 69.607251 135.347432 33.256798 77.34139 22.429003 267.601208-28.616314 328.700907 27.8429 0 149.268882 1.546828 149.268882 1.546827-55.685801-34.803625-64.193353-281.522659-26.296073-355.770392z"
     fill="#65320b"
     id="path2" />
</svg>
